<svg width="100%" height="100%" viewBox="0 0 165 200"
     xmlns="http://www.w3.org/2000/svg" 
     xmlns:xlink="http://www.w3.org/1999/xlink">
     
  <title>Deck of Cards</title>
  
  <desc>
    Deck of Cards
    
    Based on the openclipart White Deck of individual cards by nicubunu
    for example https://openclipart.org/detail/23117/white-deck-ace-of-clubs
    
    Click on any card to display the card
    Click on the card to display the deck again
    
    Cards are symbols for reuse in card games
    
    Jay Nick
    STEAMcoded.org
  </desc>

  <script><![CDATA[
    var svgtest = new function()
    {
      window.addEventListener("load", init, false);
      
      function init()
      {
      	document.getElementById("fs").addEventListener("click",hidefs);
      	for(var i=1;i<14;i++)
      	{
      	  document.getElementById(i+"c").addEventListener("click",function(e) {toggleViewPort(e);});
      	  document.getElementById(i+"s").addEventListener("click",function(e) {toggleViewPort(e);});
      	  document.getElementById(i+"h").addEventListener("click",function(e) {toggleViewPort(e);});
      	  document.getElementById(i+"d").addEventListener("click",function(e) {toggleViewPort(e);});
      	}
      }
      
      function toggleViewPort(e)
      {
        var node = e.target;
        var ref = node.getAttribute("xlink:href");
        
        node = document.getElementById("fs");
        node.setAttribute("xlink:href",ref);
        node.setAttribute("class","show");
        document.getElementById("cards").setAttribute("class","hide");
      }
      
      function hidefs()
      {
        node = document.getElementById("fs");
        node.setAttribute("class","hide");
        document.getElementById("cards").setAttribute("class","show");
     }
      
    }();
  ]]>
  </script>

  <style type="text/css"><![CDATA[
    .show {display:initial;}
    .hide {display:none;}
    
    #cards, #fs {cursor:pointer;}
    
    .redUniform {fill:url(#redUniform);}
    .navyUniform {fill:url(#navyUniform);}
    .yellowStripe {fill:url(#yellowStripe);}
    .greenTie {fill:url(#greenTie);}
    .redTie {fill:url(#redTie);}
    
    .blueEyes {fill:#1e2ecf;}
    .brownEyes {fill:#b67870;}
    
    .blackHair {fill:#000000;}
    .blackishHair {fill:#444433;}
    .brownHair {fill:#6d2b00;}
    .blackMoustache {fill:#000000;}
    .brownMoustache {fill:#6d2b00;}
    .blackBeard {fill:#000000;}
    .brownBeard {fill:#6d2b00;}
  ]]>
  </style>

  <defs>
    <symbol id="card">
      <path style="fill:#808080;" d="M20.15 4.15h103c8.86 0 16 7.14 16 16v153c0 8.86-7.14 16-16 16h-103c-8.86 0-16-7.14-16-16v-153c0-8.86 7.14-16 16-16z"/>
      <path style="fill:#e7e7e7;" d="M17 1h103c8.86 0 16 7.14 16 16v153c0 8.86-7.14 16-16 16h-103c-8.86 0-16-7.14-16-16v-153c0-8.86 7.14-16 16-16z"/>
      <path style="fill:#c7891f;" d="M19 3h103c8.86 0 16 7.14 16 16v153c0 8.86-7.14 16-16 16h-103c-8.86 0-16-7.14-16-16v-153c0-8.86 7.14-16 16-16z"/>
      <path style="fill:#ffffff;" d="M18 2h103c8.86 0 16 7.14 16 16v153c0 8.86-7.14 16-16 16h-103c-8.86 0-16-7.14-16-16v-153c0-8.86 7.14-16 16-16z"/>
    </symbol>

    <linearGradient id="redUniform">
      <stop style="stop-color:#c10000" offset="0"/>
      <stop style="stop-color:#ff433e" offset="1"/>
    </linearGradient>
    <linearGradient id="navyUniform">
      <stop style="stop-color:#000060" offset="0"/>
      <stop style="stop-color:#0000c0" offset="1"/>
    </linearGradient>
    <linearGradient id="yellowStripe">
      <stop style="stop-color:#f0eb00" offset="0"/>
      <stop style="stop-color:#ffff00" offset="1"/>
    </linearGradient>
    <linearGradient id="face" y2="256.18" gradientUnits="userSpaceOnUse" x2="484.8" gradientTransform="matrix(.18682 0 0 .14486 77.301 1.4751)" y1="437.5" x1="356.44">
      <stop style="stop-color:#ffd8c1" offset="0"/>
      <stop style="stop-color:#ffeded" offset="1"/>
    </linearGradient>
    <linearGradient id="greenTie" y2="103.33" gradientUnits="userSpaceOnUse" x2="112.89" gradientTransform="translate(42.501 -33.244)" y1="108.76" x1="98.818">
      <stop style="stop-color:#008200" offset="0"/>
      <stop style="stop-color:#00d000" offset="1"/>
    </linearGradient>
    <linearGradient id="redTie" y2="103.33" gradientUnits="userSpaceOnUse" x2="112.89" gradientTransform="translate(42.501 -33.244)" y1="108.76" x1="98.818">
      <stop style="stop-color:#b20000" offset="0"/>
      <stop style="stop-color:#d00000" offset="1"/>
    </linearGradient>
    <linearGradient id="crown1" y2="85.362" gradientUnits="userSpaceOnUse" y1="146.36" x2="698" x1="632">
      <stop id="stop5419" style="stop-color:#f0a700" offset="0"/>
      <stop id="stop5421" style="stop-color:#ffed00" offset="1"/>
    </linearGradient>
    <linearGradient id="crown2" y2="160.36" gradientUnits="userSpaceOnUse" y1="210.36" x2="708" x1="653">
      <stop id="stop5409" style="stop-color:#f0eb00" offset="0"/>
      <stop id="stop5411" style="stop-color:#ffff00" offset="1"/>
    </linearGradient>

    <g id="blackking" transform="translate(39,8) scale(0.85)">
      <path style="fill:#000000;" d="M12.9,98l44.5,0l0,6l-44.5,0z" />
      <path style="fill:#000000;" d="M31.87 16.59c-1.98-1.62-3.42-2.63-5.78-5.12-1.77 7.18-4 6.16-7.03 3.61-3.02-3.04-2.78 11.1-8.6-1.84-1.68 0.23 1.74 10.88 2.2 15.02 3.47 4.89-2.01 11.1-0.27 14.6 5.74-0.38 0.64 6.23 2.35 9.76 0.37 4.68 2.02 8.46 2.67 12.74 9.7 4.43-8.42 7.46-4.23 11.01 0.8 3.27-1.56 9.17-0.56 13.58-0.71 6-0.63 11.41 6.75 11.69 12.78 2.48 25.82 2.39 37.88-2.35 0.14-6.99-0.1-14.91-0.22-21.34 3.16-3.86-7.9-6.5-10.38-9.98 3.53-4.32 2.31-12.72 9.46-13.33 0.76-6.26-1.41-13.96-4.74-19.85 1.07-7.66 2.34-15.29 3.07-23-7.17 14.79-4.28-3.01-7.46 4.02-2.05 2.31-3.3-0.73-4.6-0.61-1.3-5.82-3.65 7.25-5.38-3.66-2.24 9.14-2.87-6.3-4.46 3.08l-0.67 1.97z"/>
      <path style="fill:url(#face);" d="M50.25 50.4c0 11.41-7.56 20.68-16.88 20.67-9.32 0-16.88-9.26-16.88-20.67s7.56-20.68 16.88-20.68c9.32 0 16.88 9.26 16.88 20.68z"/>
      <path class="yellowStripe" d="M16.87 76.54l-2.04-1.42 6.78-5.53 1.51 3.2s-5.92 4.02-6.25 3.75z"/>
      <path class="navyUniform" d="M27.34 70.21c-7.05 0-12.72 5.68-12.72 12.73v14.93c9.38 4.64 29.53 4.89 40.62 0v-14.93c0-7.05-5.67-12.72-12.73-12.73h-15.17z"/>
      <path class="blackHair" d="M13.83 41.09s1.7-14.37 20.61-14.41c19.98 0.82 20 26.5 20 26.5-4.85 1.58-3.5 3.26-10.75 0.76 0.79-5.7-0.5-9.88-3.92-12.81-4.27 2.24-21.56 1.5-25.94-0.04z"/>
      <path style="fill:#ffffff;" d="M32.83 50.6c0 1.16-1.36 2.1-3.04 2.1s-3.04-0.94-3.04-2.1 1.36-2.1 3.04-2.11 3.04 0.94 3.04 2.11z"/>
      <path class="brownEyes" d="M30.22 50.65c0 0.97-0.78 1.76-1.73 1.76s-1.74-0.79-1.74-1.76 0.78-1.76 1.74-1.77 1.74 0.79 1.73 1.77z"/>
      <path style="fill:#000000;" d="M28.92 50.79c0 0.78-0.49 1.42-1.09 1.42s-1.09-0.64-1.08-1.42 0.49-1.42 1.08-1.42 1.09 0.64 1.09 1.42z"/>
      <path style="fill:#ffffff;" d="M22.74 50.26c0 1.16-1.36 2.1-3.04 2.1s-3.04-0.94-3.04-2.1 1.36-2.1 3.04-2.11 3.04 0.94 3.04 2.11z"/>
      <path class="brownEyes" d="M20.14 50.3c0 0.97-0.78 1.76-1.74 1.77s-1.74-0.79-1.74-1.77 0.78-1.76 1.74-1.76 1.74 0.79 1.74 1.76z"/>
      <path style="fill:#000000;" d="M18.83 50.45c0 0.78-0.49 1.42-1.09 1.42s-1.09-0.64-1.08-1.42 0.49-1.42 1.08-1.42 1.09 0.64 1.09 1.42z"/>
      <path style="fill:url(#linearGradient30467);" d="M21.82 63.78c2.92 0.14 7.3 0.34 11.73 0-4.65-1.72-7.92-2.25-11.73 0z"/>
      <path style="fill:#000070;" d="M41.44 86.09l1.26 0.12 1.38 14.52-3.47 0.25 0.83-14.89z"/>
      <path style="fill:#000000;" d="M23.48 51.99c-0.79 1.29-1.95 3.4-1.78 4.37 0.16 0.97 1.65 0.76 2.44 1.33l0.33-0.48c-0.69-0.49-1.78-0.01-1.92-0.81-0.14-0.8 0.68-2.92 1.43-4.12l-0.5-0.29z"/>
      <path class="blackBeard" d="M25.21 64.57c1.1 2.34-0.67 2.36-1.45 2.73-0.61-0.46-1.93-1.83-2.34-2.78-0.13 5.31 1.72 8.2 3.07 9.67 1.34 1.47 9.28 2.56 13.55 0 4.28-2.56 13.24-11.34 8.37-18.52-0.67 0.46-1.88 0.36-2.75 0.2 0.12 1.59-2.02 6.19-5.92 7.9s-6.72 2.12-7.76 3.65c-2.01 0.06-3.13-0.75-8.86-2.83-0.49 0.16-2.01-0.02-2.54-0.02z"/>
      <path class="blackMoustache" d="M26.13 59.21s-7.08 1.82-7.5 3.09c-0.42 1.26 1.05 2.73 1.05 2.73s4.63-3.86 6.6-3.79c-0.14-0.49 0.07-1.12-0.15-2.03z"/>
      <path class="blackMoustache" d="M26.67 59.23s7.41 0.12 8.19 1.19c0.78 1.08-0.19 2.92-0.19 2.93s-5.74-2.88-7.59-8.86c-0.01-0.51-0.34-0.96-0.41-1.9z"/>
      <path style="fill:url(#crown1);" d="M15.45 23.68l2.58-6.61 5.09 6.97 3.58-8.73 4.45 8.54s3.13-8.84 3.13-8.16c0 0.68 3.29 9.22 3.3 9.23l3.75-8.2 2.49 8.11 4.3-7.04 1.25 6.25v5s-27.5 1.25-30 0-4.01-5.22-3.92-5.36z"/>
      <path style="fill:url(#crown2);" d="M16.16 35.22c10.08 2.39 22.63 2.48 33.14 0l2.39-16.52-4.6 6.54-2.83-7.43-3.53 7.25-3.63-8.31-3.27 8.22-3.71-8.04-3.27 8.75-4.86-7.6-3.62 7.86-5.57-6.89s3.09 15.82 3.36 16.17z"/>
      <path class="yellowStripe" d="M46.65 69.78c-0.67 0.51-2.92 2.39-2.92 2.39l9.39 6.87 2.5-2.5-8.97-6.76z"/>
      <path style="fill:#0066aa;" d="M32.53 86.85l-6.94-7.94h17.41l-10.47 7.94z"/>
      <path class="yellowStripe" d="M30.26 81.01l-2.76 3.4 3.94 2.75-4.28 3.07 2.86 2.83 2.89-4.93 2.99 4.83 3.04-3.3-5-2.5 4.73-3.22-3.12-2.75-2.55 4.99-2.74-5.17z"/>
    </g>
    
    <g id="redking" transform="translate(39,8) scale(0.85)">
      <path style="fill:#000000;" d="M12.9,98l44.5,0l0,6l-44.5,0z" />
      <path style="fill:#000000;" d="M31.87 16.59c-1.98-1.62-3.42-2.63-5.78-5.12-1.77 7.18-4 6.16-7.03 3.61-3.02-3.04-2.78 11.1-8.6-1.84-1.68 0.23 1.74 10.88 2.2 15.02 3.47 4.89-2.01 11.1-0.27 14.6 5.74-0.38 0.64 6.23 2.35 9.76 0.37 4.68 2.02 8.46 2.67 12.74 9.7 4.43-8.42 7.46-4.23 11.01 0.8 3.27-1.56 9.17-0.56 13.58-0.71 6-0.63 11.41 6.75 11.69 12.78 2.48 25.82 2.39 37.88-2.35 0.14-6.99-0.1-14.91-0.22-21.34 3.16-3.86-7.9-6.5-10.38-9.98 3.53-4.32 2.31-12.72 9.46-13.33 0.76-6.26-1.41-13.96-4.74-19.85 1.07-7.66 2.34-15.29 3.07-23-7.17 14.79-4.28-3.01-7.46 4.02-2.05 2.31-3.3-0.73-4.6-0.61-1.3-5.82-3.65 7.25-5.38-3.66-2.24 9.14-2.87-6.3-4.46 3.08l-0.67 1.97z"/>
      <path style="fill:url(#face);" d="M50.25 50.4c0 11.41-7.56 20.68-16.88 20.67-9.32 0-16.88-9.26-16.88-20.67s7.56-20.68 16.88-20.68c9.32 0 16.88 9.26 16.88 20.68z"/>
      <path class="yellowStripe" d="M16.87 76.54l-2.04-1.42 6.78-5.53 1.51 3.2s-5.92 4.02-6.25 3.75z"/>
      <path class="redUniform" d="M27.34 70.21c-7.05 0-12.72 5.68-12.72 12.73v14.93c9.38 4.64 29.53 4.89 40.62 0v-14.93c0-7.05-5.67-12.72-12.73-12.73h-15.17z"/>
      <path class="brownHair" d="M13.83 41.09s1.7-14.37 20.61-14.41c19.98 0.82 20 26.5 20 26.5-4.85 1.58-3.5 3.26-10.75 0.76 0.79-5.7-0.5-9.88-3.92-12.81-4.27 2.24-21.56 1.5-25.94-0.04z"/>
      <path style="fill:#ffffff;" d="M32.83 50.6c0 1.16-1.36 2.1-3.04 2.1s-3.04-0.94-3.04-2.1 1.36-2.1 3.04-2.11 3.04 0.94 3.04 2.11z"/>
      <path class="blueEyes" d="M30.22 50.65c0 0.97-0.78 1.76-1.73 1.76s-1.74-0.79-1.74-1.76 0.78-1.76 1.74-1.77 1.74 0.79 1.73 1.77z"/>
      <path style="fill:#000000;" d="M28.92 50.79c0 0.78-0.49 1.42-1.09 1.42s-1.09-0.64-1.08-1.42 0.49-1.42 1.08-1.42 1.09 0.64 1.09 1.42z"/>
      <path style="fill:#ffffff;" d="M22.74 50.26c0 1.16-1.36 2.1-3.04 2.1s-3.04-0.94-3.04-2.1 1.36-2.1 3.04-2.11 3.04 0.94 3.04 2.11z"/>
      <path class="blueEyes" d="M20.14 50.3c0 0.97-0.78 1.76-1.74 1.77s-1.74-0.79-1.74-1.77 0.78-1.76 1.74-1.76 1.74 0.79 1.74 1.76z"/>
      <path style="fill:#000000;" d="M18.83 50.45c0 0.78-0.49 1.42-1.09 1.42s-1.09-0.64-1.08-1.42 0.49-1.42 1.08-1.42 1.09 0.64 1.09 1.42z"/>
      <path style="fill:url(#linearGradient30467);" d="M21.82 63.78c2.92 0.14 7.3 0.34 11.73 0-4.65-1.72-7.92-2.25-11.73 0z"/>
      <path style="fill:#700000;" d="M41.44 86.09l1.26 0.12 1.38 14.52-3.47 0.25 0.83-14.89z"/>
      <path style="fill:#000000;" d="M23.48 51.99c-0.79 1.29-1.95 3.4-1.78 4.37 0.16 0.97 1.65 0.76 2.44 1.33l0.33-0.48c-0.69-0.49-1.78-0.01-1.92-0.81-0.14-0.8 0.68-2.92 1.43-4.12l-0.5-0.29z"/>
      <path class="brownBeard" d="M25.21 64.57c1.1 2.34-0.67 2.36-1.45 2.73-0.61-0.46-1.93-1.83-2.34-2.78-0.13 5.31 1.72 8.2 3.07 9.67 1.34 1.47 9.28 2.56 13.55 0 4.28-2.56 13.24-11.34 8.37-18.52-0.67 0.46-1.88 0.36-2.75 0.2 0.12 1.59-2.02 6.19-5.92 7.9s-6.72 2.12-7.76 3.65c-2.01 0.06-3.13-0.75-8.86-2.83-0.49 0.16-2.01-0.02-2.54-0.02z"/>
      <path class="brownMoustache" d="M26.13 59.21s-7.08 1.82-7.5 3.09c-0.42 1.26 1.05 2.73 1.05 2.73s4.63-3.86 6.6-3.79c-0.14-0.49 0.07-1.12-0.15-2.03z"/>
      <path class="brownMoustache" d="M26.67 59.23s7.41 0.12 8.19 1.19c0.78 1.08-0.19 2.92-0.19 2.93s-5.74-2.88-7.59-8.86c-0.01-0.51-0.34-0.96-0.41-1.9z"/>
      <path style="fill:url(#crown1);" d="M15.45 23.68l2.58-6.61 5.09 6.97 3.58-8.73 4.45 8.54s3.13-8.84 3.13-8.16c0 0.68 3.29 9.22 3.3 9.23l3.75-8.2 2.49 8.11 4.3-7.04 1.25 6.25v5s-27.5 1.25-30 0-4.01-5.22-3.92-5.36z"/>
      <path style="fill:url(#crown2);" d="M16.16 35.22c10.08 2.39 22.63 2.48 33.14 0l2.39-16.52-4.6 6.54-2.83-7.43-3.53 7.25-3.63-8.31-3.27 8.22-3.71-8.04-3.27 8.75-4.86-7.6-3.62 7.86-5.57-6.89s3.09 15.82 3.36 16.17z"/>
      <path class="yellowStripe" d="M46.65 69.78c-0.67 0.51-2.92 2.39-2.92 2.39l9.39 6.87 2.5-2.5-8.97-6.76z"/>
      <path style="fill:#ff8900;" d="M32.53 86.85l-6.94-7.94h17.41l-10.47 7.94z"/>
      <path class="yellowStripe" d="M30.26 81.01l-2.76 3.4 3.94 2.75-4.28 3.07 2.86 2.83 2.89-4.93 2.99 4.83 3.04-3.3-5-2.5 4.73-3.22-3.12-2.75-2.55 4.99-2.74-5.17z"/>
    </g>

    <g id="blackqueen" transform="translate(11,-23) scale(0.85)">
      <path style="fill:#000000;" d="M46,130l44.5,0l0,10l-44.5,0z" />
      <path style="fill:#000000;" d="M55.84 46.06c0.25 8.39-8.78-11.84-4.95 1.01-0.18 4.95 5.75 12.65 1.64 15.66-5.49 3.2-9.41 8.68-11.28 14.72 6.72-0.95 2.78 4.81 3.49 8.9 0.2 7.75 5.8 16.13 12.77 19.9-8.47 1.63-11.54 8.88-10.67 15.89-5.69 3.83-0.01 8.99-0.85 12.53 1.62 3.99 8.94 3.76 13.07 4.94 10.52 0.87 21.44 0.54 31.35-3.5-0.82-9.43 4.24-22.27-8.29-28.65 6.22-0.11 14.1-1.57 20.13-2.89-6.86-2.7-18.93-5.57-16.76-15.3 1.53-11.46-2.27-26.82-15.43-28.98 1.03-6.32 2.55-12.59 2.5-19.03-5.68 14.51-4.55-8.82-7.22 1.22-2.05 7.8-3.52-10.38-5.18 2.98-1.97-2.18-3.7-14.04-3.85-2.28l-0.47 2.88z"/>
      <path style="fill:url(#face);" d="M80.41 85.18c0 11.41-7.56 20.68-16.88 20.68s-16.88-9.26-16.89-20.68c0-11.41 7.56-20.68 16.89-20.67s16.88 9.26 16.88 20.67z"/>
      <path class="navyUniform" d="M60.49 107.01c-7.05 0-12.72 5.67-12.72 12.72v3.19c-1.18 1.83-2.33 3.55-2.1 4.97 0.18 1.04 1.09 1.89 2.1 2.62v4.13c9.38 4.65 29.53 4.89 40.62 0v-14.91c0-7.05-5.67-12.72-12.72-12.72h-15.18z"/>
      <path class="blackishHair" d="M43.99 75.88s3.9-14.13 20.61-14.41c16.43-0.28 20.82 13.88 18.97 29.84-1.71 8.5 11.9 12.79 11.9 12.78-4.85 1.58-16.45 3.01-23.7 0.52 6.29-4.73 1.05-27.35-2.38-30.29-4.27 3.39-21.03 3.1-25.4 1.56z"/>
      <path style="fill:#ffffff;" d="M63.19 84.57c0 1.72-1.36 3.11-3.04 3.12s-3.04-1.4-3.05-3.12 1.36-3.11 3.05-3.11 3.04 1.4 3.04 3.11z"/>
      <path class="brownEyes" d="M60.58 84.64c0 1.44-0.78 2.61-1.74 2.61s-1.74-1.17-1.74-2.61 0.78-2.61 1.74-2.6 1.74 1.17 1.74 2.6z"/>
      <path style="fill:#000000;" d="M59.28 84.86c0 1.16-0.49 2.1-1.09 2.1s-1.09-0.94-1.09-2.1 0.49-2.1 1.09-2.1 1.09 0.94 1.09 2.1z"/>
      <path style="fill:url(#crown1);" d="M56.38 51.82l1.2-8.25 4.55 11.16s4.07-11.94 4.08-11.55c0 0.39 2.76 8.83 2.75 8.84l-2.15 6.79h-9.23l-1.2-6.99z"/>
      <path style="fill:url(#crown2);" d="M52.91 47.16l4.31 17.38c3.23 1.04 7.19 0.91 10.07 0.09l2.99-17.27-5.27 8.63-2.76-11.54-2.75 11.45-6.59-8.74z"/>
      <path style="fill:#ffffff;" d="M53.1 84.07c0 1.72-1.36 3.11-3.04 3.11s-3.04-1.4-3.04-3.11 1.36-3.11 3.04-3.12 3.04 1.4 3.04 3.12z"/>
      <path class="brownEyes" d="M50.49 84.14c0 1.44-0.78 2.61-1.74 2.61s-1.74-1.17-1.73-2.61 0.78-2.61 1.73-2.61 1.74 1.17 1.74 2.61z"/>
      <path style="fill:#000000;" d="M49.19 84.36c0 1.16-0.49 2.1-1.09 2.1s-1.09-0.94-1.08-2.1 0.49-2.1 1.08-2.1 1.09 0.94 1.09 2.1z"/>
      <path style="fill:#c10000" d="M51.98 97.22c3.53 4.42 6.93 2.9 11.72 0-4.29-0.25-7.19-1.51-11.72 0z"/>
      <path style="fill:#000070;" d="M74.6 122.88l1.26 0.12 1.37 14.51-3.46 0.25 0.83-14.88z"/>
      <path style="fill:#000040;" d="M57.97 128.32l-0.81 0.57c2.04 2.96 3.74 5.67 5.88 6.05 2.15 0.39 4.67-1.55 6.71-2.46l-0.41-0.91c-1.96 0.88-3.84 1.43-5.68 1.1s-3.74-1.53-5.69-4.35z"/>
      <path style="fill:#000000;" d="M53.64 86.78c-0.79 1.29-1.73 2.49-1.57 3.46 0.16 0.97 1.44 1.68 2.23 2.23l0.33-0.47c-0.69-0.49-1.15-1.13-1.29-1.93-0.14-0.8 0.05-1.79 0.79-3l-0.49-0.29z"/>
      <path style="fill:url(#face);" d="M58.47 107.55s-6.32 11.77-4.88 20.39c5.46-9.77 12.63-19.24 18.86-20.97-1.44-0.57-10.34-0.28-11.78 0.58z"/>
      <path style="fill:#000040;" d="M45.59 127.81c0.28 1.65 2.45 2.85 3.79 3.8l0.33-0.27c-1.18-0.84-1.76-0.95-2-2.31-0.23-1.36-2.41-2.87-2.12-1.22z"/>
    </g>
    
    <g id="redqueen" transform="translate(11,-23) scale(0.85)">
      <path style="fill:#000000;" d="M46,130l44.5,0l0,10l-44.5,0z" />
      <path style="fill:#000000;" d="M55.84 46.06c0.25 8.39-8.78-11.84-4.95 1.01-0.18 4.95 5.75 12.65 1.64 15.66-5.49 3.2-9.41 8.68-11.28 14.72 6.72-0.95 2.78 4.81 3.49 8.9 0.2 7.75 5.8 16.13 12.77 19.9-8.47 1.63-11.54 8.88-10.67 15.89-5.69 3.83-0.01 8.99-0.85 12.53 1.62 3.99 8.94 3.76 13.07 4.94 10.52 0.87 21.44 0.54 31.35-3.5-0.82-9.43 4.24-22.27-8.29-28.65 6.22-0.11 14.1-1.57 20.13-2.89-6.86-2.7-18.93-5.57-16.76-15.3 1.53-11.46-2.27-26.82-15.43-28.98 1.03-6.32 2.55-12.59 2.5-19.03-5.68 14.51-4.55-8.82-7.22 1.22-2.05 7.8-3.52-10.38-5.18 2.98-1.97-2.18-3.7-14.04-3.85-2.28l-0.47 2.88z"/>
      <path style="fill:url(#face);" d="M80.41 85.18c0 11.41-7.56 20.68-16.88 20.68s-16.88-9.26-16.89-20.68c0-11.41 7.56-20.68 16.89-20.67s16.88 9.26 16.88 20.67z"/>
      <path class="redUniform" d="M60.49 107.01c-7.05 0-12.72 5.67-12.72 12.72v3.19c-1.18 1.83-2.33 3.55-2.1 4.97 0.18 1.04 1.09 1.89 2.1 2.62v4.13c9.38 4.65 29.53 4.89 40.62 0v-14.91c0-7.05-5.67-12.72-12.72-12.72h-15.18z"/>
      <path class="brownHair" d="M43.99 75.88s3.9-14.13 20.61-14.41c16.43-0.28 20.82 13.88 18.97 29.84-1.71 8.5 11.9 12.79 11.9 12.78-4.85 1.58-16.45 3.01-23.7 0.52 6.29-4.73 1.05-27.35-2.38-30.29-4.27 3.39-21.03 3.1-25.4 1.56z"/>
      <path style="fill:#ffffff;" d="M63.19 84.57c0 1.72-1.36 3.11-3.04 3.12s-3.04-1.4-3.05-3.12 1.36-3.11 3.05-3.11 3.04 1.4 3.04 3.11z"/>
      <path class="blueEyes" d="M60.58 84.64c0 1.44-0.78 2.61-1.74 2.61s-1.74-1.17-1.74-2.61 0.78-2.61 1.74-2.6 1.74 1.17 1.74 2.6z"/>
      <path style="fill:#000000;" d="M59.28 84.86c0 1.16-0.49 2.1-1.09 2.1s-1.09-0.94-1.09-2.1 0.49-2.1 1.09-2.1 1.09 0.94 1.09 2.1z"/>
      <path style="fill:url(#crown1);" d="M56.38 51.82l1.2-8.25 4.55 11.16s4.07-11.94 4.08-11.55c0 0.39 2.76 8.83 2.75 8.84l-2.15 6.79h-9.23l-1.2-6.99z"/>
      <path style="fill:url(#crown2);" d="M52.91 47.16l4.31 17.38c3.23 1.04 7.19 0.91 10.07 0.09l2.99-17.27-5.27 8.63-2.76-11.54-2.75 11.45-6.59-8.74z"/>
      <path style="fill:#ffffff;" d="M53.1 84.07c0 1.72-1.36 3.11-3.04 3.11s-3.04-1.4-3.04-3.11 1.36-3.11 3.04-3.12 3.04 1.4 3.04 3.12z"/>
      <path class="blueEyes" d="M50.49 84.14c0 1.44-0.78 2.61-1.74 2.61s-1.74-1.17-1.73-2.61 0.78-2.61 1.73-2.61 1.74 1.17 1.74 2.61z"/>
      <path style="fill:#000000;" d="M49.19 84.36c0 1.16-0.49 2.1-1.09 2.1s-1.09-0.94-1.08-2.1 0.49-2.1 1.08-2.1 1.09 0.94 1.09 2.1z"/>
      <path style="fill:#c10000" d="M51.98 97.22c3.53 4.42 6.93 2.9 11.72 0-4.29-0.25-7.19-1.51-11.72 0z"/>
      <path style="fill:#700000;" d="M74.6 122.88l1.26 0.12 1.37 14.51-3.46 0.25 0.83-14.88z"/>
      <path style="fill:#700000;" d="M57.97 128.32l-0.81 0.57c2.04 2.96 3.74 5.67 5.88 6.05 2.15 0.39 4.67-1.55 6.71-2.46l-0.41-0.91c-1.96 0.88-3.84 1.43-5.68 1.1s-3.74-1.53-5.69-4.35z"/>
      <path style="fill:#000000;" d="M53.64 86.78c-0.79 1.29-1.73 2.49-1.57 3.46 0.16 0.97 1.44 1.68 2.23 2.23l0.33-0.47c-0.69-0.49-1.15-1.13-1.29-1.93-0.14-0.8 0.05-1.79 0.79-3l-0.49-0.29z"/>
      <path style="fill:url(#face);" d="M58.47 107.55s-6.32 11.77-4.88 20.39c5.46-9.77 12.63-19.24 18.86-20.97-1.44-0.57-10.34-0.28-11.78 0.58z"/>
      <path style="fill:#700000;" d="M45.59 127.81c0.28 1.65 2.45 2.85 3.79 3.8l0.33-0.27c-1.18-0.84-1.76-0.95-2-2.31-0.23-1.36-2.41-2.87-2.12-1.22z"/>
    </g>
    
    <g id="blackjack" transform="translate(-86 -7)">
      <path style="fill:#000000;" d="M132.8,90l44.5,0l0,13l-44.5,0z" />
      <path style="fill:#000000;" d="M150.53 17.56c-5.97 3.77-13.47-3.17-17.45 4.88-3.5 4.78 7.53 6.17 0.57 10.43-4.76 5.12-4.48 7.38-0.37 8-1.19 5.66-0.32 15.17 2.27 20.36-3.21 3.9-0.8 2.56 3.55 3.38-1.35 2.15-0.57 10.05-5.2 12.49-2.33 7.02-0.59 14.64-1.13 21.9 11.28 4.75 24.63 5.29 35.4 2.76 4.74-0.99 10.15-1.37 9.2-8.13 0.28-8.43 1.28-19.52-7.91-23.83-5.38-0.75-7.17-4.39-3.05-9.55 3.07-8.36 6.44-4.86 11.15-6.98 4.9-1.31-7-4.54-5.43-9.98-1.52-4.25-3.38-9.26-6.43-12.71 7.68-0.69 8.5-8.7 2.26-10.33-6.19-4.12-9.84 2.91-14.55-2.37-0.78-0.01-2.1-0.5-2.88-0.32z"/>
      <path style="fill:url(#face);" d="M167.87 48.82c0 11.41-7.56 20.68-16.88 20.68s-16.88-9.26-16.88-20.68c0-11.41 7.56-20.68 16.88-20.67s16.88 9.26 16.88 20.67z"/>
      <path class="navyUniform" d="M147.48 69.98c-7.05 0-12.72 5.67-12.72 12.72v14.93c9.38 4.65 29.52 4.89 40.62 0v-14.93c0-7.05-5.68-12.72-12.73-12.72h-15.17z"/>
      <path class="blackHair" d="M132.28 39.19c2.52-4.53 5.05-13.18 19.12-13.09 21.84 0.64 16.63 23.38 24.45 25.84-4.85 1.58-7.3 2.93-14.54 0.43 0.79-5.7-0.5-9.88-3.92-12.82-4.27 2.24-20.74 1.18-25.11-0.36z"/>
      <path style="fill:#ffffff;" d="M150.45 49.02c0 1.16-1.36 2.1-3.04 2.11s-3.04-0.94-3.04-2.11 1.36-2.1 3.04-2.1 3.04 0.94 3.04 2.1z"/>
      <path class="brownEyes" d="M147.84 49.07c0 0.97-0.78 1.76-1.73 1.76s-1.74-0.79-1.74-1.76 0.78-1.76 1.74-1.76 1.74 0.79 1.73 1.76z"/>
      <path style="fill:#000000;" d="M146.54 49.22c0 0.78-0.49 1.42-1.09 1.42s-1.09-0.64-1.08-1.42 0.49-1.42 1.08-1.42 1.09 0.64 1.09 1.42z"/>
      <path style="fill:#ffffff;" d="M140.36 48.68c0 1.16-1.36 2.1-3.04 2.11s-3.04-0.94-3.04-2.11 1.36-2.1 3.04-2.1 3.04 0.94 3.04 2.1z"/>
      <path class="brownEyes" d="M137.76 48.73c0 0.97-0.78 1.76-1.74 1.76s-1.74-0.79-1.74-1.76 0.78-1.76 1.74-1.76 1.74 0.79 1.74 1.76z"/>
      <path style="fill:#000000;" d="M136.45 48.88c0 0.78-0.49 1.42-1.08 1.42s-1.09-0.64-1.09-1.42 0.49-1.42 1.09-1.42 1.09 0.64 1.08 1.42z"/>
      <path style="fill:#c10000" d="M139.44 62.2c1.85 3.62 6.9 1.94 11.73 0-5.33 0.56-9 0.97-11.73 0z"/>
      <path style="fill:#000070;" d="M161.58 85.86l1.26 0.12 1.37 14.51-3.46 0.47 0.83-15.1z"/>
      <path style="fill:#000000;" d="M141.64 50.15c-0.8 1.29-1.95 3.4-1.78 4.37 0.16 0.97 1.65 0.76 2.44 1.32l0.33-0.47c-0.7-0.49-1.78-0.01-1.92-0.81-0.13-0.8 0.68-2.92 1.42-4.12l-0.49-0.29z"/>
      <path class="blackMoustache" d="M142.93 57.8c-3.8 0.38-6.13 3.3-8.06 5.42 0 0 6.24-3.46 8.2-3.39-0.14-0.49 0.07-1.12-0.14-2.03z"/>
      <path class="blackMoustache" d="M143.8 57.66c3.38 0.35 9.84 2.97 10.14 5.46 0 0-7.88-4.22-9.73-3.57-0.02-0.51-0.34-0.96-0.41-1.89z"/>
      <path class="yellowStripe" d="M138.27 71.65c3.63 11.22 8.7 20.95 14.46 29.54l3.69-0.11c-5.74-9.21-11.73-19.6-15.15-30.81 0 0-2.04 0.62-3 1.38z"/>
      <path class="redTie" d="M138.45 68.13l-0.25 10.25 9.31-5.69v1.44l3.69 0.31-0.06-1.93 12.12 5.43-1.25-12.06-10.69 5.44-0.25-1.81-3.75-0.25v1.93l-8.87-3.06z"/>
      <path class="yellowStripe" d="M138.49 28.03l-0.53 2.6c7.66 2.23 17.9 1.88 26.76 0.92-0.02-0.36-0.35-2.52-0.35-2.52-8.52 0.88-19.42 0.81-25.88-1z"/>
      <path class="navyUniform" d="M150.74 29.59c28.52 3.83 23.48-13.4 1.57-7.62-21.15-7.46-26.23 9.83-1.57 7.62z"/>
      <path class="yellowStripe" d="M155.12 21.19a3.72 1.66 0 1 1-7.43 0 3.72 1.66 0 1 1 7.43 0z"/>
    </g>
    <g id="redjack" transform="translate(-86 -7)">
      <path style="fill:#000000;" d="M132.8,90l44.5,0l0,13l-44.5,0z" />
      <path style="fill:#000000;" d="M150.53 17.56c-5.97 3.77-13.47-3.17-17.45 4.88-3.5 4.78 7.53 6.17 0.57 10.43-4.76 5.12-4.48 7.38-0.37 8-1.19 5.66-0.32 15.17 2.27 20.36-3.21 3.9-0.8 2.56 3.55 3.38-1.35 2.15-0.57 10.05-5.2 12.49-2.33 7.02-0.59 14.64-1.13 21.9 11.28 4.75 24.63 5.29 35.4 2.76 4.74-0.99 10.15-1.37 9.2-8.13 0.28-8.43 1.28-19.52-7.91-23.83-5.38-0.75-7.17-4.39-3.05-9.55 3.07-8.36 6.44-4.86 11.15-6.98 4.9-1.31-7-4.54-5.43-9.98-1.52-4.25-3.38-9.26-6.43-12.71 7.68-0.69 8.5-8.7 2.26-10.33-6.19-4.12-9.84 2.91-14.55-2.37-0.78-0.01-2.1-0.5-2.88-0.32z"/>
      <path style="fill:url(#face);" d="M167.87 48.82c0 11.41-7.56 20.68-16.88 20.68s-16.88-9.26-16.88-20.68c0-11.41 7.56-20.68 16.88-20.67s16.88 9.26 16.88 20.67z"/>
      <path class="redUniform" d="M147.48 69.98c-7.05 0-12.72 5.67-12.72 12.72v14.93c9.38 4.65 29.52 4.89 40.62 0v-14.93c0-7.05-5.68-12.72-12.73-12.72h-15.17z"/>
      <path class="brownHair" d="M132.28 39.19c2.52-4.53 5.05-13.18 19.12-13.09 21.84 0.64 16.63 23.38 24.45 25.84-4.85 1.58-7.3 2.93-14.54 0.43 0.79-5.7-0.5-9.88-3.92-12.82-4.27 2.24-20.74 1.18-25.11-0.36z"/>
      <path style="fill:#ffffff;" d="M150.45 49.02c0 1.16-1.36 2.1-3.04 2.11s-3.04-0.94-3.04-2.11 1.36-2.1 3.04-2.1 3.04 0.94 3.04 2.1z"/>
      <path class="blueEyes" d="M147.84 49.07c0 0.97-0.78 1.76-1.73 1.76s-1.74-0.79-1.74-1.76 0.78-1.76 1.74-1.76 1.74 0.79 1.73 1.76z"/>
      <path style="fill:#000000;" d="M146.54 49.22c0 0.78-0.49 1.42-1.09 1.42s-1.09-0.64-1.08-1.42 0.49-1.42 1.08-1.42 1.09 0.64 1.09 1.42z"/>
      <path style="fill:#ffffff;" d="M140.36 48.68c0 1.16-1.36 2.1-3.04 2.11s-3.04-0.94-3.04-2.11 1.36-2.1 3.04-2.1 3.04 0.94 3.04 2.1z"/>
      <path class="blueEyes" d="M137.76 48.73c0 0.97-0.78 1.76-1.74 1.76s-1.74-0.79-1.74-1.76 0.78-1.76 1.74-1.76 1.74 0.79 1.74 1.76z"/>
      <path style="fill:#000000;" d="M136.45 48.88c0 0.78-0.49 1.42-1.08 1.42s-1.09-0.64-1.09-1.42 0.49-1.42 1.09-1.42 1.09 0.64 1.08 1.42z"/>
      <path style="fill:#c10000" d="M139.44 62.2c1.85 3.62 6.9 1.94 11.73 0-5.33 0.56-9 0.97-11.73 0z"/>
      <path style="fill:#700000;" d="M161.58 85.86l1.26 0.12 1.37 14.51-3.46 0.47 0.83-15.1z"/>
      <path style="fill:#000000;" d="M141.64 50.15c-0.8 1.29-1.95 3.4-1.78 4.37 0.16 0.97 1.65 0.76 2.44 1.32l0.33-0.47c-0.7-0.49-1.78-0.01-1.92-0.81-0.13-0.8 0.68-2.92 1.42-4.12l-0.49-0.29z"/>
      <path class="brownMoustache" d="M142.93 57.8c-3.8 0.38-6.13 3.3-8.06 5.42 0 0 6.24-3.46 8.2-3.39-0.14-0.49 0.07-1.12-0.14-2.03z"/>
      <path class="brownMoustache" d="M143.8 57.66c3.38 0.35 9.84 2.97 10.14 5.46 0 0-7.88-4.22-9.73-3.57-0.02-0.51-0.34-0.96-0.41-1.89z"/>
      <path class="yellowStripe" d="M138.27 71.65c3.63 11.22 8.7 20.95 14.46 29.54l3.69-0.11c-5.74-9.21-11.73-19.6-15.15-30.81 0 0-2.04 0.62-3 1.38z"/>
      <path class="greenTie" d="M138.45 68.13l-0.25 10.25 9.31-5.69v1.44l3.69 0.31-0.06-1.93 12.12 5.43-1.25-12.06-10.69 5.44-0.25-1.81-3.75-0.25v1.93l-8.87-3.06z"/>
      <path class="yellowStripe" d="M138.49 28.03l-0.53 2.6c7.66 2.23 17.9 1.88 26.76 0.92-0.02-0.36-0.35-2.52-0.35-2.52-8.52 0.88-19.42 0.81-25.88-1z"/>
      <path class="redUniform" d="M150.74 29.59c28.52 3.83 23.48-13.4 1.57-7.62-21.15-7.46-26.23 9.83-1.57 7.62z"/>
      <path class="yellowStripe" d="M155.12 21.19a3.72 1.66 0 1 1-7.43 0 3.72 1.66 0 1 1 7.43 0z"/>
    </g>

    <path id="aceClub" style="fill:#000000;" transform="scale(2)" d="M0,0c-2.67 0-4.83 3.26-4.83 7.29 0 3.43 4.39 9.19 4.22 11.93-1.41 0.78-5.77-6.44-8.02-6.44-2.67 0-4.83 3.26-4.83 7.28 0 4.02 2.16 7.29 4.83 7.29 2.31 0 6.28-7.21 8.02-6.56l-2.93 12.87 7.02-0.04s-3.08-12.48-3.08-12.78h0.06v0.02c1.71-0.64 5.81 6.63 8.1 6.63 2.67 0 4.83-3.26 4.83-7.29 0-4.02-2.16-7.29-4.83-7.28-2.24 0-6.31 7.1-8.09 6.37 0.03-2.81 4.36-8.58 4.36-12 0-4.02-2.16-7.29-4.83-7.29z"/>
    <path id="largeClub" style="fill:#000000;" d="M20.53 48.67c-2.67 0-4.83 3.26-4.83 7.29 0 3.43 4.39 9.19 4.22 11.93-1.41 0.78-5.77-6.44-8.02-6.44-2.67 0-4.83 3.26-4.83 7.28 0 4.02 2.16 7.29 4.83 7.29 2.31 0 6.28-7.21 8.02-6.56l-2.93 12.87 7.02-0.04s-3.08-12.48-3.08-12.78h0.06v0.02c1.71-0.64 5.81 6.63 8.1 6.63 2.67 0 4.83-3.26 4.83-7.29 0-4.02-2.16-7.29-4.83-7.28-2.24 0-6.31 7.1-8.09 6.37 0.03-2.81 4.36-8.58 4.36-12 0-4.02-2.16-7.29-4.83-7.29z"/>
    <path id="smallClub" style="fill:#000000;" d="M0,0c-1.55 0-2.81 1.92-2.82 4.28 0 2.01 2.56 5.4 2.46 7.01-0.82 0.46-3.36-3.78-4.67-3.78-1.55 0-2.81 1.92-2.81 4.28s1.26 4.28 2.81 4.28c1.35 0 3.66-4.24 4.67-3.86l-1.7 7.57 4.09-0.03s-1.79-7.33-1.8-7.5h0.04v0.01c0.99-0.38 3.38 3.9 4.72 3.89 1.55 0 2.81-1.92 2.81-4.28 0-2.36-1.26-4.28-2.81-4.28-1.31 0-3.67 4.17-4.72 3.74 0.01-1.65 2.54-5.04 2.54-7.05 0-2.36-1.26-4.28-2.81-4.28z"/>

    <path id="aceSpade" style="stroke-linejoin:round;stroke:#000000;stroke-width:.76;fill:#000000;" transform="scale(2)" d="M0,0c-4.84 7.71-19.68 20.84-10.28 24.9 5.71 1.87 8.42-1.96 9.57-4.49h0.23l-3.79 12.76 8.78-0.04s-3.78-12.26-3.79-12.73h0.09c0.93 2.07 4.46 6.34 8.34 4.72 11.34-4.57-5.36-17.57-9.15-25.12z"/>
    <path id="largeSpade" style="stroke-linejoin:round;stroke:#000000;stroke-width:.76;fill:#000000;" d="M20.64 48.91c-4.84 7.71-19.68 20.84-10.28 24.9 5.71 1.87 8.42-1.96 9.57-4.49h0.23l-3.79 12.76 8.78-0.04s-3.78-12.26-3.79-12.73h0.09c0.93 2.07 4.46 6.34 8.34 4.72 11.34-4.57-5.36-17.57-9.15-25.12z"/>
    <path id="smallSpade" style="stroke-linejoin:round;stroke-width:.76;fill:#000000;" d="M0,0c-2.87 4.6-11.67 12.42-6.09 14.84 3.39 1.11 4.99-1.17 5.67-2.67h0.14l-2.25 7.6 5.21-0.02s-2.24-7.31-2.25-7.59h0.05c0.55 1.23 2.65 3.78 4.95 2.81 6.73-2.72-3.18-10.47-5.43-14.97z"/>

    <path id="aceHeart" style="fill:#FF0000;" transform="scale(2)" d="M0,0c-0.8 0-1.69 0.2-2.66 0.65-10.64 8.2 3.7 21.42 9.77 32.77l0.17 0.06c8.86-12.41 19.33-26.07 9.65-32.83-7.67-3.46-9.72 8.06-9.79 8.47-0.06-0.37-1.63-9.15-7.14-9.12z"/>
    <path id="largeHeart" style="fill:#FF0000;" d="M13.55 48.84c-0.8 0-1.69 0.2-2.66 0.65-10.64 8.2 3.7 21.42 9.77 32.77l0.17 0.06c8.86-12.41 19.33-26.07 9.65-32.83-7.67-3.46-9.72 8.06-9.79 8.47-0.06-0.37-1.63-9.15-7.14-9.12z"/>
    <path id="smallHeart" style="fill:#FF0000;" d="M-4.2,0c-0.47 0-0.98 0.12-1.55 0.38-6.18 4.84 2.15 12.65 5.67 19.36l0.1 0.04c3.87-7.33 11.23-15.4 5.61-19.4-4.46-2.05-5.65 4.76-5.69 5.01-0.04-0.22-0.95-5.41-4.14-5.39z"/>

    <path id="aceDiamond" style="fill:#ff0000;" transform="scale(2)" d="M0,0c-4.13 8.24-7.13 12.5-13.34 17.05 5.87 4.49 10.01 9.12 13.46 16.62 3.08-7.12 6.85-12.43 13.39-16.85-6.58-3.35-10.39-8.65-13.51-16.81z"/>
    <path id="largeDiamond" style="fill:#ff0000;" d="M22 48c-4.13 8.24-7.13 12.5-13.34 17.05 5.87 4.49 10.01 9.12 13.46 16.62 3.08-7.12 6.85-12.43 13.39-16.85-6.58-3.35-10.39-8.65-13.51-16.81z"/>
    <path id="smallDiamond" style="fill:#ff0000;" d="M0,0c-2.4 4.84-4.16 7.34-7.77 10.01 3.42 2.64 5.83 5.36 7.84 9.77 1.79-4.18 3.99-7.3 7.8-9.9-3.83-1.97-6.05-5.08-7.87-9.88z"/>

    <path id="k" d="M10.03 12.24h6.39v10.95l9.22-10.95h7.43l-11.95 14.21 13.18 15.79h-8.01l-9.87-11.81v11.81h-6.39v-30"/>
    <path id="q" d="M22.04 42.78h-0.5c-4.09 0-7.26-1.37-9.54-4.1-2.27-2.73-3.41-6.54-3.4-11.41 0-4.86 1.13-8.67 3.39-11.43 2.27-2.76 5.39-4.14 9.37-4.14 4.02 0 7.15 1.37 9.38 4.1 2.25 2.73 3.37 6.56 3.38 11.47 0 3.38-0.6 6.28-1.8 8.72-1.19 2.44-2.9 4.27-5.13 5.51l5 6.75h-6.1l-4.05-5.47m-0.68-25.48c-1.95 0-3.46 0.87-4.54 2.62-1.07 1.74-1.61 4.19-1.61 7.35 0 3.21 0.53 5.68 1.58 7.4 1.05 1.7 2.58 2.55 4.57 2.55 1.96 0 3.48-0.87 4.55-2.62 1.07-1.74 1.61-4.19 1.61-7.33 0-3.16-0.54-5.61-1.61-7.35-1.07-1.74-2.59-2.61-4.55-2.62"/>
    <path id="j" d="M18.68 12.23h6.4v21.36c0 2.95-0.84 5.15-2.53 6.61-1.67 1.46-4.21 2.19-7.6 2.19h-1.3v-4.61h1c1.33 0 2.33-0.35 3-1.07 0.69-0.71 1.03-1.75 1.03-3.12v-21.36"/>
    <path id="ten" d="M11.68 42.37v-23.59l-5.24-0.07 0.25-3.62 4.96-3.09h5.49v30.37m13.43-15.22c0-3.75-0.27-6.39-0.79-7.92-0.52-1.54-1.4-2.31-2.64-2.31-1.24 0-2.13 0.77-2.66 2.31-0.53 1.53-0.8 4.17-0.8 7.92 0 3.79 0.27 6.46 0.8 8.01 0.53 1.55 1.42 2.33 2.66 2.34 1.23 0 2.11-0.78 2.64-2.34 0.53-1.55 0.8-4.23 0.79-8.01m5.78 0.06c0 4.97-0.8 8.81-2.4 11.51-1.6 2.69-3.87 4.04-6.81 4.04-2.95 0-5.23-1.35-6.83-4.04-1.6-2.71-2.4-6.54-2.4-11.51 0-4.98 0.8-8.82 2.4-11.52 1.6-2.71 3.88-4.06 6.83-4.06 2.94 0 5.21 1.35 6.81 4.06 1.6 2.69 2.4 6.53 2.4 11.52"/>
    <path id="nine" d="M12.16 41.58v-5.55c1.02 0.58 1.99 1.01 2.93 1.31 0.93 0.28 1.85 0.42 2.76 0.42 1.91 0 3.39-0.64 4.45-1.91 1.06-1.29 1.69-3.19 1.88-5.71-0.75 0.67-1.56 1.17-2.41 1.51-0.85 0.34-1.78 0.5-2.78 0.5-2.54 0-4.58-0.89-6.15-2.67-1.55-1.79-2.33-4.15-2.32-7.07 0-3.23 0.86-5.81 2.59-7.76 1.74-1.94 4.07-2.91 6.98-2.91 3.23 0 5.74 1.32 7.51 3.95 1.77 2.64 2.66 6.37 2.66 11.2 0 4.96-1.04 8.85-3.11 11.69-2.07 2.83-4.91 4.24-8.52 4.24-1.16 0-2.28-0.11-3.34-0.32-1.06-0.2-2.1-0.51-3.13-0.92m7.89-14.45c1.12 0 1.96-0.44 2.53-1.31 0.56-0.88 0.85-2.2 0.85-3.96 0-1.74-0.28-3.05-0.85-3.93s-1.41-1.33-2.53-1.33c-1.12 0-1.96 0.44-2.52 1.33s-0.85 2.2-0.85 3.93c0 1.75 0.28 3.08 0.85 3.96 0.56 0.87 1.41 1.31 2.52 1.31"/>
    <path id="eight" d="M20.6 28.82c-1.2 0-2.12 0.4-2.75 1.18s-0.96 1.92-0.97 3.4c0 1.47 0.32 2.6 0.97 3.39 0.64 0.78 1.56 1.17 2.75 1.17 1.19 0 2.09-0.39 2.73-1.17 0.63-0.79 0.95-1.92 0.94-3.39 0-1.49-0.32-2.62-0.94-3.4-0.63-0.79-1.54-1.19-2.73-1.18m-4.67-2.56c-1.51-0.55-2.64-1.39-3.4-2.53-0.77-1.14-1.15-2.56-1.15-4.26 0-2.53 0.78-4.46 2.35-5.79 1.56-1.33 3.85-1.99 6.87-1.98 3 0 5.28 0.66 6.85 1.98 1.56 1.31 2.34 3.24 2.34 5.79 0 1.7-0.39 3.12-1.16 4.26-0.76 1.14-1.9 1.98-3.41 2.53 1.68 0.56 2.95 1.48 3.81 2.76 0.86 1.26 1.29 2.85 1.29 4.78 0 2.97-0.82 5.22-2.46 6.75-1.63 1.51-4.05 2.27-7.26 2.27-3.22 0-5.66-0.76-7.31-2.27-1.64-1.53-2.46-3.78-2.46-6.75 0-1.93 0.43-3.52 1.28-4.78 0.86-1.27 2.14-2.19 3.82-2.76m1.5-6c0 1.19 0.27 2.11 0.81 2.75 0.55 0.64 1.34 0.96 2.36 0.96 1 0 1.77-0.32 2.31-0.96s0.81-1.56 0.82-2.75-0.27-2.1-0.82-2.74c-0.54-0.64-1.31-0.96-2.31-0.96-1.02 0-1.81 0.32-2.36 0.96-0.54 0.64-0.81 1.55-0.81 2.74"/>
    <path id="seven" d="M11.28 12h18.69v4.36l-9.67 25.64h-6.23l9.15-24.32h-11.95v-5.68"/>
    <path id="six" d="M21.07 27.43c-1.12 0-1.96 0.44-2.53 1.32-0.55 0.87-0.83 2.18-0.83 3.94 0 1.75 0.28 3.07 0.83 3.96 0.56 0.87 1.41 1.31 2.53 1.31 1.13 0 1.97-0.43 2.52-1.31 0.56-0.88 0.85-2.2 0.85-3.96 0-1.75-0.28-3.07-0.85-3.94-0.55-0.88-1.4-1.33-2.52-1.32m7.91-14.41v5.55c-1.05-0.6-2.04-1.04-2.98-1.33-0.93-0.29-1.84-0.44-2.72-0.44-1.91 0-3.39 0.64-4.45 1.93-1.06 1.27-1.68 3.17-1.87 5.68 0.73-0.66 1.52-1.15 2.38-1.46 0.85-0.34 1.78-0.5 2.79-0.5 2.54 0 4.58 0.9 6.13 2.69 1.56 1.8 2.34 4.15 2.34 7.05 0 3.21-0.87 5.79-2.6 7.74-1.74 1.93-4.07 2.89-7 2.89-3.22 0-5.72-1.31-7.49-3.94-1.76-2.64-2.64-6.38-2.64-11.21 0-4.96 1.03-8.85 3.09-11.67 2.07-2.84 4.91-4.26 8.5-4.26 1.14 0 2.25 0.11 3.33 0.32 1.07 0.21 2.14 0.54 3.19 0.96"/>
    <path id="five" d="M12.36 12.24h15.9v5.68h-10.8v4.65c0.49-0.16 0.97-0.28 1.47-0.37 0.5-0.09 1.01-0.14 1.54-0.14 3.02 0 5.38 0.92 7.06 2.76 1.68 1.82 2.52 4.37 2.53 7.63 0 3.24-0.92 5.78-2.76 7.62-1.83 1.83-4.37 2.75-7.63 2.75-1.41 0-2.8-0.17-4.18-0.5-1.37-0.32-2.74-0.82-4.11-1.49v-6.09c1.35 0.94 2.63 1.64 3.84 2.11 1.22 0.47 2.36 0.7 3.44 0.71 1.55 0 2.77-0.46 3.65-1.37 0.9-0.92 1.34-2.17 1.35-3.74 0-1.58-0.45-2.83-1.35-3.74-0.89-0.91-2.1-1.37-3.65-1.36-0.92 0-1.9 0.15-2.94 0.44-1.04 0.28-2.16 0.72-3.36 1.33v-16.88"/>
    <path id="four" d="M21.29 18.61l-7.02 12.56h7.02v-12.56m-1.07-6.37h7.11v18.93h3.54v5.6h-3.54v5.47h-6.04v-5.47h-11v-6.63l9.93-17.9"/>
    <path id="three" d="M24.61 26.06c1.67 0.52 2.94 1.43 3.8 2.74 0.88 1.29 1.31 2.93 1.31 4.92 0 2.97-0.94 5.24-2.82 6.79-1.88 1.54-4.63 2.31-8.24 2.31-1.27 0-2.55-0.13-3.84-0.38-1.27-0.24-2.54-0.61-3.78-1.11v-5.96c1.2 0.72 2.38 1.27 3.55 1.64 1.19 0.36 2.35 0.54 3.49 0.55 1.69 0 2.99-0.35 3.89-1.07 0.91-0.71 1.36-1.73 1.36-3.05 0-1.37-0.47-2.4-1.4-3.1-0.92-0.71-2.28-1.06-4.08-1.06h-2.56v-4.99h2.69c1.61 0 2.8-0.3 3.59-0.9 0.79-0.62 1.18-1.55 1.18-2.79 0-1.15-0.38-2.04-1.15-2.67-0.77-0.63-1.84-0.94-3.24-0.95-1.03 0-2.07 0.14-3.12 0.42-1.05 0.28-2.1 0.7-3.14 1.25v-5.67c1.26-0.43 2.51-0.75 3.75-0.96 1.24-0.21 2.46-0.32 3.66-0.32 3.22 0 5.63 0.64 7.22 1.92 1.61 1.27 2.41 3.19 2.41 5.77 0 1.75-0.38 3.19-1.14 4.32-0.77 1.11-1.89 1.9-3.39 2.35"/>
    <path id="two" d="M18.8 36.31h10.91v5.69h-18.02v-5.69l9.05-9.66c0.81-0.88 1.41-1.75 1.8-2.6 0.39-0.84 0.58-1.72 0.58-2.63 0-1.41-0.39-2.54-1.18-3.39-0.78-0.86-1.81-1.29-3.11-1.29-1 0-2.09 0.26-3.27 0.78-1.19 0.51-2.45 1.27-3.8 2.29v-6.59c1.44-0.58 2.86-1.01 4.27-1.3 1.41-0.31 2.79-0.46 4.13-0.46 2.97 0 5.27 0.79 6.91 2.37 1.65 1.58 2.48 3.78 2.48 6.61 0 1.64-0.35 3.16-1.05 4.58-0.7 1.41-2.17 3.29-4.4 5.66l-5.3 5.63"/>
    <path id="one" d="M25.08 36.77h-10l-1.58 5.47h-6.43l9.19-30h7.62l9.19 30h-6.43l-1.56-5.47m-8.41-5.56h6.8l-3.39-11.94-3.41 11.94"/>

    <symbol id="c13" viewBox="0 0 140 190">
      <use xlink:href="#card" />
      <g id="c13top">
        <use xlink:href="#k" style="fill:#000000;" />
        <use xlink:href="#largeClub" />
        <use xlink:href="#blackking" />
      </g>
      <use xlink:href="#c13top" transform="rotate(180,69,95)" />
    </symbol>

    <symbol id="c12" viewBox="0 0 140 190">
      <use xlink:href="#card" />
      <g id="c12top">
        <use xlink:href="#q" style="fill:#000000;" />
        <use xlink:href="#largeClub" />
        <use xlink:href="#blackqueen" />
      </g>
      <use xlink:href="#c12top" transform="rotate(180,69,95)" />
    </symbol>

    <symbol id="c11" viewBox="0 0 140 190">
      <use xlink:href="#card" />
      <g id="c11top">
        <use xlink:href="#j" style="fill:#000000;" />
        <use xlink:href="#largeClub" />
        <use xlink:href="#blackjack" />
      </g>
      <use xlink:href="#c11top" transform="rotate(180,69,95)" />
    </symbol>

    <symbol id="c10" viewBox="0 0 140 190">
      <use xlink:href="#card" />
      <g id="c10top">
        <use xlink:href="#ten" style="fill:#000000;" />
        <use xlink:href="#largeClub" />
        <use x="49" y="36" xlink:href="#smallClub" />
        <use x="69" y="54" xlink:href="#smallClub" />
        <use x="89" y="36" xlink:href="#smallClub" />
        <use x="49" y="72" xlink:href="#smallClub" />
        <use x="89" y="72" xlink:href="#smallClub" />
      </g>
      <use xlink:href="#c10top" transform="rotate(180,69,95)" />
    </symbol>

    <symbol id="c9" viewBox="0 0 140 190">
      <use xlink:href="#card" />
      <g id="c9top">
        <use xlink:href="#nine" style="fill:#000000;" />
        <use xlink:href="#largeClub" />
        <use x="49" y="36" xlink:href="#smallClub" />
        <use x="89" y="36" xlink:href="#smallClub" />
        <use x="49" y="65" xlink:href="#smallClub" />
        <use x="89" y="65" xlink:href="#smallClub" />
      </g>
      <use xlink:href="#c9top" transform="rotate(180,69,95)" />
      <use x="69" y="83.5" xlink:href="#smallClub" />
    </symbol>

    <symbol id="c8" viewBox="0 0 140 190">
      <use xlink:href="#card" />
      <g id="c8top">
        <use xlink:href="#eight" style="fill:#000000;" />
        <use xlink:href="#largeClub" />
        <use x="49" y="36" xlink:href="#smallClub" />
        <use x="89" y="36" xlink:href="#smallClub" />
        <use x="49" y="69" xlink:href="#smallClub" />
        <use x="89" y="69" xlink:href="#smallClub" />
      </g>
      <use xlink:href="#c8top" transform="rotate(180,69,95)" />
    </symbol>

    <symbol id="c7" viewBox="0 0 140 190">
      <use xlink:href="#card" />
      <g id="c7top">
        <use xlink:href="#seven" style="fill:#000000;" />
        <use xlink:href="#largeClub" />
        <use x="49" y="36" xlink:href="#smallClub" />
        <use x="89" y="36" xlink:href="#smallClub" />
      </g>
      <use xlink:href="#c7top" transform="rotate(180,69,95)" />
      <use x="49" y="83.5" xlink:href="#smallClub" />
      <use x="89" y="83.5" xlink:href="#smallClub" />
      <use x="69" y="60" xlink:href="#smallClub" />
    </symbol>

    <symbol id="c6" viewBox="0 0 140 190">
      <use xlink:href="#card" />
      <g id="c6top">
        <use xlink:href="#six" style="fill:#000000;" />
        <use xlink:href="#largeClub" />
        <use x="49" y="36" xlink:href="#smallClub" />
        <use x="89" y="36" xlink:href="#smallClub" />
      </g>
      <use xlink:href="#c6top" transform="rotate(180,69,95)" />
      <use x="49" y="83.5" xlink:href="#smallClub" />
      <use x="89" y="83.5" xlink:href="#smallClub" />
    </symbol>

    <symbol id="c5" viewBox="0 0 140 190">
      <use xlink:href="#card" />
      <g id="c5top">
        <use xlink:href="#five" style="fill:#000000;" />
        <use xlink:href="#largeClub" />
        <use x="49" y="36" xlink:href="#smallClub" />
        <use x="89" y="36" xlink:href="#smallClub" />
      </g>
      <use xlink:href="#c5top" transform="rotate(180,69,95)" />
      <use x="69" y="83.5" xlink:href="#smallClub" />
    </symbol>

    <symbol id="c4" viewBox="0 0 140 190">
      <use xlink:href="#card" />
      <g id="c4top">
        <use xlink:href="#four" style="fill:#000000;" />
        <use xlink:href="#largeClub" />
        <use x="49" y="40" xlink:href="#smallClub" />
        <use x="89" y="40" xlink:href="#smallClub" />
      </g>
      <use xlink:href="#c4top" transform="rotate(180,69,95)" />
    </symbol>

    <symbol id="c3" viewBox="0 0 140 190">
      <use xlink:href="#card" />
      <g id="c3top">
        <use xlink:href="#three" style="fill:#000000;" />
        <use xlink:href="#largeClub" />
        <use x="69" y="40" xlink:href="#smallClub" />
      </g>
      <use xlink:href="#c3top" transform="rotate(180,69,95)" />
      <use x="69" y="83.5" xlink:href="#smallClub" />
    </symbol>

    <symbol id="c2" viewBox="0 0 140 190">
      <use xlink:href="#card" />
      <g id="c2top">
        <use xlink:href="#two" style="fill:#000000;" />
        <use xlink:href="#largeClub" />
        <use x="69" y="40" xlink:href="#smallClub" />
      </g>
      <use xlink:href="#c2top" transform="rotate(180,69,95)" />
    </symbol>

    <symbol id="c1" viewBox="0 0 140 190">
      <use xlink:href="#card" />
      <g id="c1top">
        <use xlink:href="#one" style="fill:#000000;" />
        <use xlink:href="#largeClub" />
      </g>
      <use xlink:href="#c1top" transform="rotate(180,69,95)" />
      <use x="69" y="55" xlink:href="#aceClub" />
    </symbol>

    <symbol id="s13" viewBox="0 0 140 190">
      <use xlink:href="#card" />
      <g id="s13top">
        <use xlink:href="#k" style="fill:#000000;" />
        <use xlink:href="#largeSpade" />
        <use xlink:href="#blackking" />
      </g>
      <use xlink:href="#s13top" transform="rotate(180,69,95)" />
    </symbol>

    <symbol id="s12" viewBox="0 0 140 190">
      <use xlink:href="#card" />
      <g id="s12top">
        <use xlink:href="#q" style="fill:#000000;" />
        <use xlink:href="#largeSpade" />
        <use xlink:href="#blackqueen" />
      </g>
      <use xlink:href="#s12top" transform="rotate(180,69,95)" />
    </symbol>

    <symbol id="s11" viewBox="0 0 140 190">
      <use xlink:href="#card" />
      <g id="s11top">
        <use xlink:href="#j" style="fill:#000000;" />
        <use xlink:href="#largeSpade" />
        <use xlink:href="#blackjack" />
      </g>
      <use xlink:href="#s11top" transform="rotate(180,69,95)" />
    </symbol>

    <symbol id="s10" viewBox="0 0 140 190">
      <use xlink:href="#card" />
      <g id="s10top">
        <use xlink:href="#ten" style="fill:#000000;" />
        <use xlink:href="#largeSpade" />
        <use x="49" y="36" xlink:href="#smallSpade" />
        <use x="69" y="54" xlink:href="#smallSpade" />
        <use x="89" y="36" xlink:href="#smallSpade" />
        <use x="49" y="72" xlink:href="#smallSpade" />
        <use x="89" y="72" xlink:href="#smallSpade" />
      </g>
      <use xlink:href="#s10top" transform="rotate(180,69,95)" />
    </symbol>

    <symbol id="s9" viewBox="0 0 140 190">
      <use xlink:href="#card" />
      <g id="s9top">
        <use xlink:href="#nine" style="fill:#000000;" />
        <use xlink:href="#largeSpade" />
        <use x="49" y="36" xlink:href="#smallSpade" />
        <use x="89" y="36" xlink:href="#smallSpade" />
        <use x="49" y="65" xlink:href="#smallSpade" />
        <use x="89" y="65" xlink:href="#smallSpade" />
      </g>
      <use xlink:href="#s9top" transform="rotate(180,69,95)" />
      <use x="69" y="83.5" xlink:href="#smallSpade" />
    </symbol>

    <symbol id="s8" viewBox="0 0 140 190">
      <use xlink:href="#card" />
      <g id="s8top">
        <use xlink:href="#eight" style="fill:#000000;" />
        <use xlink:href="#largeSpade" />
        <use x="49" y="36" xlink:href="#smallSpade" />
        <use x="89" y="36" xlink:href="#smallSpade" />
        <use x="49" y="69" xlink:href="#smallSpade" />
        <use x="89" y="69" xlink:href="#smallSpade" />
      </g>
      <use xlink:href="#s8top" transform="rotate(180,69,95)" />
    </symbol>

    <symbol id="s7" viewBox="0 0 140 190">
      <use xlink:href="#card" />
      <g id="s7top">
        <use xlink:href="#seven" style="fill:#000000;" />
        <use xlink:href="#largeSpade" />
        <use x="49" y="36" xlink:href="#smallSpade" />
        <use x="89" y="36" xlink:href="#smallSpade" />
      </g>
      <use xlink:href="#s7top" transform="rotate(180,69,95)" />
      <use x="49" y="83.5" xlink:href="#smallSpade" />
      <use x="89" y="83.5" xlink:href="#smallSpade" />
      <use x="69" y="60" xlink:href="#smallSpade" />
    </symbol>

    <symbol id="s6" viewBox="0 0 140 190">
      <use xlink:href="#card" />
      <g id="s6top">
        <use xlink:href="#six" style="fill:#000000;" />
        <use xlink:href="#largeSpade" />
        <use x="49" y="36" xlink:href="#smallSpade" />
        <use x="89" y="36" xlink:href="#smallSpade" />
      </g>
      <use xlink:href="#s6top" transform="rotate(180,69,95)" />
      <use x="49" y="83.5" xlink:href="#smallSpade" />
      <use x="89" y="83.5" xlink:href="#smallSpade" />
    </symbol>

    <symbol id="s5" viewBox="0 0 140 190">
      <use xlink:href="#card" />
      <g id="s5top">
        <use xlink:href="#five" style="fill:#000000;" />
        <use xlink:href="#largeSpade" />
        <use x="49" y="36" xlink:href="#smallSpade" />
        <use x="89" y="36" xlink:href="#smallSpade" />
      </g>
      <use xlink:href="#s5top" transform="rotate(180,69,95)" />
      <use x="69" y="83.5" xlink:href="#smallSpade" />
    </symbol>

    <symbol id="s4" viewBox="0 0 140 190">
      <use xlink:href="#card" />
      <g id="s4top">
        <use xlink:href="#four" style="fill:#000000;" />
        <use xlink:href="#largeSpade" />
        <use x="49" y="40" xlink:href="#smallSpade" />
        <use x="89" y="40" xlink:href="#smallSpade" />
      </g>
      <use xlink:href="#s4top" transform="rotate(180,69,95)" />
    </symbol>

    <symbol id="s3" viewBox="0 0 140 190">
      <use xlink:href="#card" />
      <g id="s3top">
        <use xlink:href="#three" style="fill:#000000;" />
        <use xlink:href="#largeSpade" />
        <use x="69" y="40" xlink:href="#smallSpade" />
      </g>
      <use xlink:href="#s3top" transform="rotate(180,69,95)" />
      <use x="69" y="83.5" xlink:href="#smallSpade" />
    </symbol>

    <symbol id="s2" viewBox="0 0 140 190">
      <use xlink:href="#card" />
      <g id="s2top">
        <use xlink:href="#two" style="fill:#000000;" />
        <use xlink:href="#largeSpade" />
        <use x="69" y="40" xlink:href="#smallSpade" />
      </g>
      <use xlink:href="#s2top" transform="rotate(180,69,95)" />
    </symbol>

    <symbol id="s1" viewBox="0 0 140 190">
      <use xlink:href="#card" />
      <g id="s1top">
        <use xlink:href="#one" style="fill:#000000;" />
        <use xlink:href="#largeSpade" />
      </g>
      <use xlink:href="#s1top" transform="rotate(180,69,95)" />
      <use x="69" y="55" xlink:href="#aceSpade" />
    </symbol>

    <symbol id="h13" viewBox="0 0 140 190">
      <use xlink:href="#card" />
      <g id="h13top">
        <use xlink:href="#k" style="fill:#FF0000;" />
        <use xlink:href="#largeHeart" />
        <use xlink:href="#redking" />
      </g>
      <use xlink:href="#h13top" transform="rotate(180,69,95)" />
    </symbol>

    <symbol id="h12" viewBox="0 0 140 190">
      <use xlink:href="#card" />
      <g id="h12top">
        <use xlink:href="#q" style="fill:#FF0000;" />
        <use xlink:href="#largeHeart" />
        <use xlink:href="#redqueen" />
      </g>
      <use xlink:href="#h12top" transform="rotate(180,69,95)" />
    </symbol>

    <symbol id="h11" viewBox="0 0 140 190">
      <use xlink:href="#card" />
      <g id="h11top">
        <use xlink:href="#j" style="fill:#FF0000;" />
        <use xlink:href="#largeHeart" />
        <use xlink:href="#redjack" />
      </g>
      <use xlink:href="#h11top" transform="rotate(180,69,95)" />
    </symbol>

    <symbol id="h10" viewBox="0 0 140 190">
      <use xlink:href="#card" />
      <g id="h10top">
        <use xlink:href="#ten" style="fill:#FF0000;" />
        <use xlink:href="#largeHeart" />
        <use x="49" y="36" xlink:href="#smallHeart" />
        <use x="69" y="54" xlink:href="#smallHeart" />
        <use x="89" y="36" xlink:href="#smallHeart" />
        <use x="49" y="72" xlink:href="#smallHeart" />
        <use x="89" y="72" xlink:href="#smallHeart" />
      </g>
      <use xlink:href="#h10top" transform="rotate(180,69,95)" />
    </symbol>

    <symbol id="h9" viewBox="0 0 140 190">
      <use xlink:href="#card" />
      <g id="h9top">
        <use xlink:href="#nine" style="fill:#FF0000;" />
        <use xlink:href="#largeHeart" />
        <use x="49" y="36" xlink:href="#smallHeart" />
        <use x="89" y="36" xlink:href="#smallHeart" />
        <use x="49" y="65" xlink:href="#smallHeart" />
        <use x="89" y="65" xlink:href="#smallHeart" />
      </g>
      <use xlink:href="#h9top" transform="rotate(180,69,95)" />
      <use x="69" y="85" xlink:href="#smallHeart" />
    </symbol>

    <symbol id="h8" viewBox="0 0 140 190">
      <use xlink:href="#card" />
      <g id="h8top">
        <use xlink:href="#eight" style="fill:#FF0000;" />
        <use xlink:href="#largeHeart" />
        <use x="49" y="36" xlink:href="#smallHeart" />
        <use x="89" y="36" xlink:href="#smallHeart" />
        <use x="49" y="69" xlink:href="#smallHeart" />
        <use x="89" y="69" xlink:href="#smallHeart" />
      </g>
      <use xlink:href="#h8top" transform="rotate(180,69,95)" />
    </symbol>

    <symbol id="h7" viewBox="0 0 140 190">
      <use xlink:href="#card" />
      <g id="h7top">
        <use xlink:href="#seven" style="fill:#FF0000;" />
        <use xlink:href="#largeHeart" />
        <use x="49" y="36" xlink:href="#smallHeart" />
        <use x="89" y="36" xlink:href="#smallHeart" />
      </g>
      <use xlink:href="#h7top" transform="rotate(180,69,95)" />
      <use x="49" y="85" xlink:href="#smallHeart" />
      <use x="89" y="85" xlink:href="#smallHeart" />
      <use x="69" y="60" xlink:href="#smallHeart" />
    </symbol>

    <symbol id="h6" viewBox="0 0 140 190">
      <use xlink:href="#card" />
      <g id="h6top">
        <use xlink:href="#six" style="fill:#FF0000;" />
        <use xlink:href="#largeHeart" />
        <use x="49" y="36" xlink:href="#smallHeart" />
        <use x="89" y="36" xlink:href="#smallHeart" />
      </g>
      <use xlink:href="#h6top" transform="rotate(180,69,95)" />
      <use x="49" y="85" xlink:href="#smallHeart" />
      <use x="89" y="85" xlink:href="#smallHeart" />
    </symbol>

    <symbol id="h5" viewBox="0 0 140 190">
      <use xlink:href="#card" />
      <g id="h5top">
        <use xlink:href="#five" style="fill:#FF0000;" />
        <use xlink:href="#largeHeart" />
        <use x="49" y="36" xlink:href="#smallHeart" />
        <use x="89" y="36" xlink:href="#smallHeart" />
      </g>
      <use xlink:href="#h5top" transform="rotate(180,69,95)" />
      <use x="69" y="85" xlink:href="#smallHeart" />
    </symbol>

    <symbol id="h4" viewBox="0 0 140 190">
      <use xlink:href="#card" />
      <g id="h4top">
        <use xlink:href="#four" style="fill:#FF0000;" />
        <use xlink:href="#largeHeart" />
        <use x="49" y="40" xlink:href="#smallHeart" />
        <use x="89" y="40" xlink:href="#smallHeart" />
      </g>
      <use xlink:href="#h4top" transform="rotate(180,69,95)" />
    </symbol>

    <symbol id="h3" viewBox="0 0 140 190">
      <use xlink:href="#card" />
      <g id="h3top">
        <use xlink:href="#three" style="fill:#FF0000;" />
        <use xlink:href="#largeHeart" />
        <use x="69" y="40" xlink:href="#smallHeart" />
      </g>
      <use xlink:href="#h3top" transform="rotate(180,69,95)" />
      <use x="69" y="85" xlink:href="#smallHeart" />
    </symbol>

    <symbol id="h2" viewBox="0 0 140 190">
      <use xlink:href="#card" />
      <g id="h2top">
        <use xlink:href="#two" style="fill:#FF0000;" />
        <use xlink:href="#largeHeart" />
        <use x="69" y="40" xlink:href="#smallHeart" />
      </g>
      <use xlink:href="#h2top" transform="rotate(180,69,95)" />
    </symbol>

    <symbol id="h1" viewBox="0 0 140 190">
      <use xlink:href="#card" />
      <g id="h1top">
        <use xlink:href="#one" style="fill:#FF0000;" />
        <use xlink:href="#largeHeart" />
      </g>
      <use xlink:href="#h1top" transform="rotate(180,69,95)" />
      <use x="54.5" y="61" xlink:href="#aceHeart" />
    </symbol>

    <symbol id="d13" viewBox="0 0 140 190">
      <use xlink:href="#card" />
      <g id="d13top">
        <use xlink:href="#k" style="fill:#FF0000;" />
        <use xlink:href="#largeDiamond" />
        <use xlink:href="#redking" />
      </g>
      <use xlink:href="#d13top" transform="rotate(180,69,95)" />
    </symbol>

    <symbol id="d12" viewBox="0 0 140 190">
      <use xlink:href="#card" />
      <g id="d12top">
        <use xlink:href="#q" style="fill:#FF0000;" />
        <use xlink:href="#largeDiamond" />
        <use xlink:href="#redqueen" />
      </g>
      <use xlink:href="#d12top" transform="rotate(180,69,95)" />
    </symbol>

    <symbol id="d11" viewBox="0 0 140 190">
      <use xlink:href="#card" />
      <g id="d11top">
        <use xlink:href="#j" style="fill:#FF0000;" />
        <use xlink:href="#largeDiamond" />
        <use xlink:href="#redjack" />
      </g>
      <use xlink:href="#d11top" transform="rotate(180,69,95)" />
    </symbol>

    <symbol id="d10" viewBox="0 0 140 190">
      <use xlink:href="#card" />
      <g id="d10top">
        <use xlink:href="#ten" style="fill:#FF0000;" />
        <use xlink:href="#largeDiamond" />
        <use x="49" y="36" xlink:href="#smallDiamond" />
        <use x="69" y="54" xlink:href="#smallDiamond" />
        <use x="89" y="36" xlink:href="#smallDiamond" />
        <use x="49" y="72" xlink:href="#smallDiamond" />
        <use x="89" y="72" xlink:href="#smallDiamond" />
      </g>
      <use xlink:href="#d10top" transform="rotate(180,69,95)" />
    </symbol>

    <symbol id="d9" viewBox="0 0 140 190">
      <use xlink:href="#card" />
      <g id="d9top">
        <use xlink:href="#nine" style="fill:#FF0000;" />
        <use xlink:href="#largeDiamond" />
        <use x="49" y="36" xlink:href="#smallDiamond" />
        <use x="89" y="36" xlink:href="#smallDiamond" />
        <use x="49" y="65" xlink:href="#smallDiamond" />
        <use x="89" y="65" xlink:href="#smallDiamond" />
      </g>
      <use xlink:href="#d9top" transform="rotate(180,69,95)" />
      <use x="69" y="85" xlink:href="#smallDiamond" />
    </symbol>

    <symbol id="d8" viewBox="0 0 140 190">
      <use xlink:href="#card" />
      <g id="d8top">
        <use xlink:href="#eight" style="fill:#FF0000;" />
        <use xlink:href="#largeDiamond" />
        <use x="49" y="36" xlink:href="#smallDiamond" />
        <use x="89" y="36" xlink:href="#smallDiamond" />
        <use x="49" y="69" xlink:href="#smallDiamond" />
        <use x="89" y="69" xlink:href="#smallDiamond" />
      </g>
      <use xlink:href="#d8top" transform="rotate(180,69,95)" />
    </symbol>

    <symbol id="d7" viewBox="0 0 140 190">
      <use xlink:href="#card" />
      <g id="d7top">
        <use xlink:href="#seven" style="fill:#FF0000;" />
        <use xlink:href="#largeDiamond" />
        <use x="49" y="36" xlink:href="#smallDiamond" />
        <use x="89" y="36" xlink:href="#smallDiamond" />
      </g>
      <use xlink:href="#d7top" transform="rotate(180,69,95)" />
      <use x="49" y="85" xlink:href="#smallDiamond" />
      <use x="89" y="85" xlink:href="#smallDiamond" />
      <use x="69" y="60" xlink:href="#smallDiamond" />
    </symbol>

    <symbol id="d6" viewBox="0 0 140 190">
      <use xlink:href="#card" />
      <g id="d6top">
        <use xlink:href="#six" style="fill:#FF0000;" />
        <use xlink:href="#largeDiamond" />
        <use x="49" y="36" xlink:href="#smallDiamond" />
        <use x="89" y="36" xlink:href="#smallDiamond" />
      </g>
      <use xlink:href="#d6top" transform="rotate(180,69,95)" />
      <use x="49" y="85" xlink:href="#smallDiamond" />
      <use x="89" y="85" xlink:href="#smallDiamond" />
    </symbol>

    <symbol id="d5" viewBox="0 0 140 190">
      <use xlink:href="#card" />
      <g id="d5top">
        <use xlink:href="#five" style="fill:#FF0000;" />
        <use xlink:href="#largeDiamond" />
        <use x="49" y="36" xlink:href="#smallDiamond" />
        <use x="89" y="36" xlink:href="#smallDiamond" />
      </g>
      <use xlink:href="#d5top" transform="rotate(180,69,95)" />
      <use x="69" y="85" xlink:href="#smallDiamond" />
    </symbol>

    <symbol id="d4" viewBox="0 0 140 190">
      <use xlink:href="#card" />
      <g id="d4top">
        <use xlink:href="#four" style="fill:#FF0000;" />
        <use xlink:href="#largeDiamond" />
        <use x="49" y="40" xlink:href="#smallDiamond" />
        <use x="89" y="40" xlink:href="#smallDiamond" />
      </g>
      <use xlink:href="#d4top" transform="rotate(180,69,95)" />
    </symbol>

    <symbol id="d3" viewBox="0 0 140 190">
      <use xlink:href="#card" />
      <g id="d3top">
        <use xlink:href="#three" style="fill:#FF0000;" />
        <use xlink:href="#largeDiamond" />
        <use x="69" y="40" xlink:href="#smallDiamond" />
      </g>
      <use xlink:href="#d3top" transform="rotate(180,69,95)" />
      <use x="69" y="85" xlink:href="#smallDiamond" />
    </symbol>

    <symbol id="d2" viewBox="0 0 140 190">
      <use xlink:href="#card" />
      <g id="d2top">
        <use xlink:href="#two" style="fill:#FF0000;" />
        <use xlink:href="#largeDiamond" />
        <use x="69" y="40" xlink:href="#smallDiamond" />
      </g>
      <use xlink:href="#d2top" transform="rotate(180,69,95)" />
    </symbol>

    <symbol id="d1" viewBox="0 0 140 190">
      <use xlink:href="#card" />
      <g id="d1top">
        <use xlink:href="#one" style="fill:#FF0000;" />
        <use xlink:href="#largeDiamond" />
      </g>
      <use xlink:href="#d1top" transform="rotate(180,69,95)" />
      <use x="69" y="61" xlink:href="#aceDiamond" />
    </symbol>

  </defs>

  <rect width="100%" height="100%" style="fill:none;stroke:navy;" class="hide" />

  <g transform="translate(5,5)">
    <g id="cards">
      <g transform="translate(0,-1.5)">
        <use id="13c" x="0" width="35" height="47.5" xlink:href="#c13" />
        <use id="12c" x="10" width="35" height="47.5" xlink:href="#c12" />
        <use id="11c" x="20" width="35" height="47.5" xlink:href="#c11" />
        <use id="10c" x="30" width="35" height="47.5" xlink:href="#c10" />
        <use id="9c" x="40" width="35" height="47.5" xlink:href="#c9" />
        <use id="8c" x="50" width="35" height="47.5" xlink:href="#c8" />
        <use id="7c" x="60" width="35" height="47.5" xlink:href="#c7" />
        <use id="6c" x="70" width="35" height="47.5" xlink:href="#c6" />
        <use id="5c" x="80" width="35" height="47.5" xlink:href="#c5" />
        <use id="4c" x="90" width="35" height="47.5" xlink:href="#c4" />
        <use id="3c" x="100" width="35" height="47.5" xlink:href="#c3" />
        <use id="2c" x="110" width="35" height="47.5" xlink:href="#c2" />
        <use id="1c" x="120" width="35" height="47.5" xlink:href="#c1" />
      </g>
      <g transform="translate(0,47)">
        <use id="13s" x="0" width="35" height="47.5" xlink:href="#s13" />
        <use id="12s" x="10" width="35" height="47.5" xlink:href="#s12" />
        <use id="11s" x="20" width="35" height="47.5" xlink:href="#s11" />
        <use id="10s" x="30" width="35" height="47.5" xlink:href="#s10" />
        <use id="9s" x="40" width="35" height="47.5" xlink:href="#s9" />
        <use id="8s" x="50" width="35" height="47.5" xlink:href="#s8" />
        <use id="7s" x="60" width="35" height="47.5" xlink:href="#s7" />
        <use id="6s" x="70" width="35" height="47.5" xlink:href="#s6" />
        <use id="5s" x="80" width="35" height="47.5" xlink:href="#s5" />
        <use id="4s" x="90" width="35" height="47.5" xlink:href="#s4" />
        <use id="3s" x="100" width="35" height="47.5" xlink:href="#s3" />
        <use id="2s" x="110" width="35" height="47.5" xlink:href="#s2" />
        <use id="1s" x="120" width="35" height="47.5" xlink:href="#s1" />
      </g>
      <g transform="translate(0,95.5)">
        <use id="13h" x="0" width="35" height="47.5" xlink:href="#h13" />
        <use id="12h" x="10" width="35" height="47.5" xlink:href="#h12" />
        <use id="11h" x="20" width="35" height="47.5" xlink:href="#h11" />
        <use id="10h" x="30" width="35" height="47.5" xlink:href="#h10" />
        <use id="9h" x="40" width="35" height="47.5" xlink:href="#h9" />
        <use id="8h" x="50" width="35" height="47.5" xlink:href="#h8" />
        <use id="7h" x="60" width="35" height="47.5" xlink:href="#h7" />
        <use id="6h" x="70" width="35" height="47.5" xlink:href="#h6" />
        <use id="5h" x="80" width="35" height="47.5" xlink:href="#h5" />
        <use id="4h" x="90" width="35" height="47.5" xlink:href="#h4" />
        <use id="3h" x="100" width="35" height="47.5" xlink:href="#h3" />
        <use id="2h" x="110" width="35" height="47.5" xlink:href="#h2" />
        <use id="1h" x="120" width="35" height="47.5" xlink:href="#h1" />
      </g>
      <g transform="translate(0,144)">
        <use id="13d" x="0" width="35" height="47.5" xlink:href="#d13" />
        <use id="12d" x="10" width="35" height="47.5" xlink:href="#d12" />
        <use id="11d" x="20" width="35" height="47.5" xlink:href="#d11" />
        <use id="10d" x="30" width="35" height="47.5" xlink:href="#d10" />
        <use id="9d" x="40" width="35" height="47.5" xlink:href="#d9" />
        <use id="8d" x="50" width="35" height="47.5" xlink:href="#d8" />
        <use id="7d" x="60" width="35" height="47.5" xlink:href="#d7" />
        <use id="6d" x="70" width="35" height="47.5" xlink:href="#d6" />
        <use id="5d" x="80" width="35" height="47.5" xlink:href="#d5" />
        <use id="4d" x="90" width="35" height="47.5" xlink:href="#d4" />
        <use id="3d" x="100" width="35" height="47.5" xlink:href="#d3" />
        <use id="2d" x="110" width="35" height="47.5" xlink:href="#d2" />
        <use id="1d" x="120" width="35" height="47.5" xlink:href="#d1" />
      </g>
    </g>
    
    <use id="fs" x="7.5" width="140" height="190" xlink:href="#h9" class="hide" />
  </g>
     
</svg>
